<svg aria-hidden="true" style="position: absolute; width: 0; height: 0; overflow: hidden;" version="1.1" xmlns="http://www.w3.org/2000/svg" xmlns:xlink="http://www.w3.org/1999/xlink">
<defs>
<symbol id="icon-search18x18" viewBox="0 0 32 32">
<path d="M31.804 29.92l-9.296-9.298c1.759-2.15 2.825-4.926 2.825-7.951 0-0.002 0-0.003 0-0.005v0c0-6.985-5.682-12.667-12.667-12.667-6.992 0.008-12.659 5.674-12.667 12.666v0.001c0.008 6.992 5.674 12.659 12.666 12.667h0.001c0.002 0 0.004 0 0.007 0 3.025 0 5.801-1.066 7.973-2.843l-0.022 0.018 9.296 9.298c0.121 0.12 0.287 0.195 0.471 0.195s0.351-0.075 0.471-0.195v0l0.942-0.944c0.12-0.121 0.195-0.287 0.195-0.471s-0.075-0.351-0.195-0.471v0zM12.667 22.667c-5.52-0.006-9.994-4.48-10-9.999v-0.001c0.006-5.52 4.48-9.994 9.999-10h0.001c5.52 0.006 9.994 4.48 10 9.999v0.001c-0.006 5.52-4.48 9.994-9.999 10h-0.001z"></path>
</symbol>
<symbol id="icon-search30x30" viewBox="0 0 32 32">
<path d="M30.899 29.541l-8.957-8.957c1.694-2.071 2.721-4.746 2.721-7.66 0-0.002 0-0.005 0-0.007v0c0-6.73-5.475-12.205-12.203-12.205-6.731 0-12.206 5.475-12.206 12.205s5.476 12.204 12.206 12.204c2.903 0 5.569-1.022 7.667-2.721l8.957 8.957c0.116 0.116 0.277 0.188 0.454 0.188s0.338-0.072 0.454-0.188l0.908-0.908c0.116-0.116 0.188-0.277 0.188-0.454s-0.072-0.338-0.188-0.454v0zM12.458 22.553c-5.314 0-9.636-4.322-9.636-9.635s4.322-9.635 9.636-9.635c5.313 0 9.635 4.322 9.635 9.635s-4.322 9.635-9.635 9.635z"></path>
</symbol>
</defs>
</svg>
